<?xml version="1.0" encoding="UTF-8"?>
<svg version="1.1" xmlns="http://www.w3.org/2000/svg" width="871" height="1007">
<path d="M0 0 C5 0 5 0 6.89453125 1.78125 C7.84392578 3.12703125 7.84392578 3.12703125 8.8125 4.5 C9.17722412 5.00974365 9.54194824 5.5194873 9.91772461 6.04467773 C14.79223144 12.95112113 19.41928367 20.04334076 24.0637207 27.10546875 C27.91558564 32.95171725 31.8974772 38.6629067 36.04223633 44.30493164 C39.23298098 48.69732847 42.26999085 53.1917434 45.3125 57.6875 C46.62605847 59.62125925 47.93986217 61.55485195 49.25390625 63.48828125 C49.89086426 64.42623535 50.52782227 65.36418945 51.18408203 66.33056641 C53.6940811 70.02031228 56.21935407 73.69939504 58.75 77.375 C59.18803955 78.01139404 59.6260791 78.64778809 60.07739258 79.3034668 C60.9479539 80.56795752 61.81863933 81.83236282 62.68945312 83.09667969 C64.96155061 86.39646956 67.23057913 89.69836901 69.5 93 C70.41665286 94.33334282 71.33331951 95.66667617 72.25 97 C99.75 137 99.75 137 101.1237793 138.99829102 C102.04443216 140.33737791 102.96516841 141.67640747 103.88598633 143.01538086 C106.11733692 146.26023002 108.34743948 149.50591802 110.57421875 152.75390625 C115.93377249 160.56706127 121.33168193 168.35247139 126.75 176.125 C133.40731212 185.67817169 139.98661614 195.28220169 146.53515625 204.91015625 C150.89631778 211.32193808 155.29090487 217.71051677 159.68945312 224.09667969 C161.96155061 227.39646956 164.23057913 230.69836901 166.5 234 C167.41665286 235.33334282 168.33331951 236.66667617 169.25 238 C273.75 390 273.75 390 275.12548828 392.00073242 C276.0404997 393.33164335 276.95553869 394.66253534 277.87060547 395.9934082 C280.18782581 399.36364804 282.50453932 402.73423433 284.8203125 406.10546875 C285.28526123 406.78206543 285.75020996 407.45866211 286.22924805 408.15576172 C287.15054133 409.49685018 288.07128843 410.83831404 288.99145508 412.18017578 C291.20694333 415.40773661 293.43474191 418.6252836 295.69140625 421.82421875 C296.11276855 422.42403564 296.53413086 423.02385254 296.96826172 423.6418457 C298.11468637 425.27149501 299.2661587 426.89759004 300.41796875 428.5234375 C302 431 302 431 302 433 C301.2879541 433.40613525 300.5759082 433.81227051 299.84228516 434.23071289 C278.55168255 446.37755837 257.28411855 458.56253657 236.125 470.9375 C226.85494485 476.35911495 217.5416835 481.70204857 208.21154785 487.01922607 C199.10114499 492.21248595 190.02619753 497.46364295 180.97485352 502.75927734 C173.31115156 507.2413721 165.62877938 511.69046822 157.9375 516.125 C156.30433838 517.06678101 156.30433838 517.06678101 154.63818359 518.02758789 C152.63139987 519.18406355 150.62182571 520.33571695 148.60888672 521.48144531 C147.0100034 522.41210732 145.42807187 523.37373521 143.87939453 524.38574219 C142.06640625 525.5546875 142.06640625 525.5546875 139 527 C135.53800145 525.91715674 132.4711116 524.23805529 129.32421875 522.453125 C127.97807495 521.69165161 127.97807495 521.69165161 126.60473633 520.91479492 C125.64204834 520.3654126 124.67936035 519.81603027 123.6875 519.25 C122.67131592 518.67290283 121.65513184 518.09580566 120.6081543 517.5012207 C112.48295661 512.87474475 104.4043584 508.17017856 96.33666992 503.44433594 C88.58753226 498.91014007 80.80082131 494.44435477 73 490 C63.29121077 484.4674636 53.61610795 478.88062602 43.97045898 473.23852539 C36.34799284 468.78130441 28.70984519 464.3518432 21.0625 459.9375 C19.9904834 459.3180249 18.9184668 458.6985498 17.81396484 458.06030273 C16.79383301 457.47192627 15.77370117 456.8835498 14.72265625 456.27734375 C13.38859741 455.50765259 13.38859741 455.50765259 12.02758789 454.72241211 C8.03549096 452.45128528 4.01492881 450.23051601 0 448 C0 300.16 0 152.32 0 0 Z " fill="#21A1B6" transform="translate(297,480)"/>
<path d="M0 0 C2.3581543 1.16064453 2.3581543 1.16064453 4.82421875 2.6328125 C5.75669434 3.18380615 6.68916992 3.7347998 7.64990234 4.30249023 C9.15351318 5.20463257 9.15351318 5.20463257 10.6875 6.125 C12.86025981 7.41086159 15.03345157 8.69599352 17.20703125 9.98046875 C18.32932129 10.6461084 19.45161133 11.31174805 20.60791016 11.99755859 C26.00694148 15.18475126 31.4405284 18.31124675 36.875 21.4375 C39.05994368 22.69653156 41.24483925 23.95564661 43.4296875 25.21484375 C44.51475586 25.83987793 45.59982422 26.46491211 46.71777344 27.10888672 C52.14659942 30.23680148 57.57319281 33.36858448 63 36.5 C65.16665583 37.75001879 67.3333225 39.00001878 69.5 40.25 C73.83333333 42.75 78.16666667 45.25 82.5 47.75 C83.57427246 48.3697168 84.64854492 48.98943359 85.75537109 49.62792969 C87.90432957 50.86782537 90.05309523 52.10805529 92.20166016 53.34863281 C97.27724766 56.27872574 102.35473735 59.20536409 107.43914795 62.12011719 C109.8404023 63.49696526 112.24055526 64.87572692 114.640625 66.25463867 C116.33486603 67.22696703 118.03069581 68.1965254 119.7265625 69.16601562 C120.75265625 69.75576172 121.77875 70.34550781 122.8359375 70.953125 C123.73876465 71.47036133 124.6415918 71.98759766 125.57177734 72.52050781 C126.37309082 73.00874023 127.1744043 73.49697266 128 74 C128.69987303 74.37494248 129.39974607 74.74988497 130.12082738 75.13618934 C132.42655457 77.42306755 132.48028267 78.9901757 132.52596101 82.166637 C132.5106277 83.22288073 132.5106277 83.22288073 132.49498463 84.30046272 C132.50235709 85.4296625 132.50235709 85.4296625 132.50987849 86.5816744 C132.52154394 89.12478834 132.50448739 91.66691704 132.48774719 94.20999146 C132.49020576 96.04328237 132.4944183 97.87657164 132.50024194 99.70985496 C132.51116665 104.76356492 132.49701949 109.81694719 132.47892153 114.87062526 C132.46375092 120.31441073 132.4715732 125.75816785 132.47660828 131.20196533 C132.48284574 141.8720838 132.46781636 152.54207307 132.44588266 163.21216668 C132.42124331 175.62515649 132.41828003 188.03812234 132.41647889 200.451133 C132.41259903 222.5903336 132.39013743 244.72947859 132.35668945 266.86865234 C132.32421062 288.37646716 132.30295611 309.88425154 132.29516602 331.39208984 C132.29492297 332.05477303 132.29467993 332.71745621 132.29442953 333.4002207 C132.29223513 339.39366398 132.29008981 345.38710727 132.28797873 351.38055057 C132.28045463 371.84337213 132.26482437 392.30618858 132.24748212 412.76900391 C132.24223943 418.95963028 132.23730664 425.15025655 132.2331202 431.34088373 C132.22421258 444.36207364 132.2124713 457.3832487 132.19155417 470.40442552 C132.1829331 475.79178043 132.17586024 481.179125 132.17303848 486.56648636 C132.17038409 491.48979143 132.16313109 496.41306661 132.15204801 501.33635972 C132.14882514 503.12564116 132.14731091 504.91492658 132.1475983 506.70421089 C132.1477223 509.11991573 132.14179851 511.5355285 132.13422108 513.95121956 C132.13644651 515.01448679 132.13644651 515.01448679 132.13871691 516.09923416 C132.114164 520.885836 132.114164 520.885836 131 522 C128.25 522.44921875 128.25 522.44921875 125 522 C122.97872663 519.943986 121.5696717 518.18173074 120 515.8125 C119.53271484 515.14178467 119.06542969 514.47106934 118.58398438 513.7800293 C117.0318559 511.53549488 115.51372448 509.27058672 114 507 C113.484375 506.23429687 112.96875 505.46859375 112.4375 504.6796875 C109.57784512 500.43225892 106.74193092 496.16966614 103.91796875 491.8984375 C99.59917647 485.37762578 95.20924295 478.90583033 90.8125 472.4375 C90.00341586 471.24674622 89.19433384 470.05599101 88.38525391 468.86523438 C86.74526555 466.4519368 85.10488283 464.03890775 83.46435547 461.62597656 C81.02746633 458.04117519 78.59338487 454.45447421 76.16015625 450.8671875 C75.76405655 450.28322708 75.36795685 449.69926666 74.95985413 449.09761047 C74.16263319 447.92226505 73.3654174 446.74691614 72.56820679 445.57156372 C65.52410805 435.18692741 58.47139774 424.80817573 51.41357422 414.43286133 C45.70008514 406.03258509 39.99519168 397.62650124 34.29199219 389.21923828 C28.69986611 380.97594636 23.10265019 372.7361449 17.5 364.5 C11.53631852 355.73278921 5.57819357 346.96183388 -0.375 338.1875 C-0.96713287 337.31476944 -0.96713287 337.31476944 -1.57122803 336.42440796 C-4.78378956 331.68937872 -7.99602676 326.95412948 -11.20825195 322.21887207 C-14.013684 318.0833125 -16.81924272 313.94783892 -19.625 309.8125 C-20.01991638 309.23043793 -20.41483276 308.64837585 -20.82171631 308.04867554 C-27.07044792 298.83920266 -33.32673289 289.63488822 -39.58642578 280.43286133 C-45.29991486 272.03258509 -51.00480832 263.62650124 -56.70800781 255.21923828 C-62.30013389 246.97594636 -67.89734981 238.7361449 -73.5 230.5 C-79.46368148 221.73278921 -85.42180643 212.96183388 -91.375 204.1875 C-91.76975525 203.60567963 -92.1645105 203.02385925 -92.57122803 202.42440796 C-95.78378956 197.68937872 -98.99602676 192.95412948 -102.20825195 188.21887207 C-105.013684 184.0833125 -107.81924272 179.94783892 -110.625 175.8125 C-111.01991638 175.23043793 -111.41483276 174.64837585 -111.82171631 174.04867554 C-117.37618994 165.86241031 -122.93601545 157.67980522 -128.5 149.5 C-145.5947713 124.3646608 -145.5947713 124.3646608 -153.93554688 112.046875 C-155.22434449 110.14477067 -156.51448187 108.2435726 -157.80664062 106.34375 C-159.27117578 104.19033434 -160.73037943 102.03343609 -162.1875 99.875 C-162.59154053 99.28380371 -162.99558105 98.69260742 -163.41186523 98.08349609 C-166 94.22938085 -166 94.22938085 -166 92 C-165.33806641 91.6189209 -164.67613281 91.2378418 -163.99414062 90.84521484 C-160.82902985 89.02249878 -157.66435373 87.19902992 -154.5 85.375 C-153.91377869 85.03709442 -153.32755737 84.69918884 -152.72357178 84.3510437 C-144.50853204 79.6144932 -136.3095522 74.85159901 -128.125 70.0625 C-118.85507201 64.64067002 -109.54168133 59.29795019 -100.21154785 53.98077393 C-91.0871716 48.77954871 -81.99867226 43.51972122 -72.93310547 38.21655273 C-62.43691336 32.07856591 -51.90186662 26.0085231 -41.36572266 19.93945312 C-37.8510675 17.91417962 -34.33744531 15.88712521 -30.82421875 13.859375 C-30.23406982 13.51877548 -29.6439209 13.17817596 -29.03588867 12.82725525 C-26.20307244 11.19230093 -23.37031 9.55725345 -20.53759766 7.92211914 C-18.55293365 6.77690289 -16.56611232 5.63541314 -14.57666016 4.49853516 C-12.99646745 3.57952598 -11.42963386 2.63641631 -9.88818359 1.65380859 C-6.05523154 -0.75945516 -4.32287466 -1.25746794 0 0 Z " fill="#22A4AD" transform="translate(439,1)"/>
<path d="M0 0 C7.90532758 3.84380354 15.56527811 7.95505546 23.125 12.4375 C25.21053604 13.66474498 27.29648933 14.89128112 29.3828125 16.1171875 C30.99591309 17.06609863 30.99591309 17.06609863 32.64160156 18.03417969 C36.10427334 20.06103584 39.57669183 22.06991917 43.0546875 24.0703125 C43.63711212 24.40537308 44.21953674 24.74043365 44.8196106 25.08564758 C47.63534092 26.70472566 50.45222712 28.32176923 53.27001953 29.93725586 C54.29466309 30.52643799 55.31930664 31.11562012 56.375 31.72265625 C57.26960937 32.23578369 58.16421875 32.74891113 59.0859375 33.27758789 C60.04757812 33.84598389 61.00921875 34.41437988 62 35 C62.65998984 35.31780831 63.31997968 35.63561661 63.99996921 35.96305547 C66.24914645 37.14375239 68.11112847 38.29627533 70 40 C70.83691043 43.25053618 71.07015256 45.24909107 70.98438263 48.5020113 C70.99361338 49.36040923 71.00284414 50.21880716 71.01235461 51.10321715 C71.03361804 53.99438964 70.9975846 56.88203353 70.96203613 59.77302551 C70.96552329 61.86037348 70.97252526 63.94771806 70.98274946 66.0350439 C71.00068213 71.78198811 70.96857925 77.52774507 70.92852497 83.27453792 C70.89405013 89.46741882 70.90566307 95.66023011 70.91174316 101.85317993 C70.91594265 112.58651631 70.89107328 123.31937405 70.84584045 134.05259132 C70.79851789 145.31051281 70.76771574 156.56827945 70.75901794 167.82629967 C70.75846803 168.52606109 70.75791811 169.22582252 70.75735153 169.94678884 C70.7546449 173.50046658 70.75223381 177.05414447 70.74993652 180.6078225 C70.73312939 205.78414532 70.67922003 230.96026579 70.60351562 256.13647461 C70.53005082 280.59609907 70.47337677 305.05566818 70.43945312 329.51538086 C70.43840092 330.26922146 70.43734871 331.02306207 70.43626461 331.79974633 C70.42571653 339.37006478 70.41551001 346.94038366 70.40555374 354.51070292 C70.38526357 369.93256853 70.36269355 385.35443054 70.33874512 400.77629089 C70.3376468 401.48537635 70.33654848 402.19446181 70.33541688 402.9250347 C70.26180093 450.28344239 70.13487181 497.64173129 70 545 C68.8361956 545.6646804 68.8361956 545.6646804 67.64888 546.3427887 C64.69778841 548.02835401 61.74679131 549.71408454 58.79585266 551.3999176 C57.53223742 552.12176254 56.26858733 552.84354649 55.00489807 553.56526184 C32.9261725 566.04421797 32.9261725 566.04421797 11.11328125 578.97265625 C10.40469971 579.40650635 9.69611816 579.84035645 8.96606445 580.28735352 C7.70066352 581.06783861 6.43967315 581.85554423 5.18432617 582.65209961 C3.82451752 583.49402238 2.41641452 584.25724604 1 585 C0.34 584.67 -0.32 584.34 -1 584 C-1.01710956 528.43269421 -1.03303131 472.86538815 -1.04234314 417.29808044 C-1.0424812 416.47634151 -1.04261925 415.65460258 -1.04276149 414.80796247 C-1.04575404 396.9515756 -1.04852428 379.0951887 -1.05106533 361.23880175 C-1.05231272 352.48268749 -1.05360927 343.72657324 -1.05493164 334.97045898 C-1.0550624 334.09909645 -1.05519316 333.22773392 -1.05532788 332.32996647 C-1.05959315 304.06040028 -1.06710737 275.79083608 -1.07629722 247.5212711 C-1.08571984 218.48310369 -1.09188312 189.44493738 -1.09391499 160.40676846 C-1.09420317 156.31017471 -1.0945288 152.21358097 -1.09487724 148.11698723 C-1.09494467 147.31067792 -1.09501209 146.50436861 -1.09508156 145.67362569 C-1.09626564 132.66731575 -1.10091007 119.66100921 -1.10683203 106.65470066 C-1.11270492 93.5953041 -1.11497159 80.53591093 -1.11350138 67.4765131 C-1.11273782 59.70713647 -1.11479495 51.93777221 -1.12079754 44.1683978 C-1.12496395 38.3830714 -1.123975 32.59775368 -1.12089889 26.81242632 C-1.12047297 24.45979925 -1.12177069 22.10717117 -1.12488318 19.75454611 C-1.12884314 16.57900117 -1.12676591 13.40351868 -1.12304783 10.22797489 C-1.12567484 9.29526851 -1.12830186 8.36256213 -1.13100848 7.40159193 C-1.1141458 1.1141458 -1.1141458 1.1141458 0 0 Z " fill="#24B373" transform="translate(801,211)"/>
<path d="M0 0 C0 191.73 0 383.46 0 581 C-3.86349391 579.45460244 -7.12420698 577.88793449 -10.69921875 575.83203125 C-11.81393555 575.19305908 -12.92865234 574.55408691 -14.07714844 573.89575195 C-15.28066348 573.20144646 -16.48411244 572.50702642 -17.6875 571.8125 C-18.93117268 571.09765255 -20.17498986 570.38305643 -21.41894531 569.66870117 C-23.99250892 568.18995105 -26.5648488 566.7091034 -29.13623047 565.2265625 C-32.2723072 563.41858012 -35.41077456 561.6148076 -38.55036926 559.8129425 C-41.45119986 558.14778541 -44.35057502 556.48010347 -47.25 554.8125 C-48.31307373 554.20188721 -49.37614746 553.59127441 -50.47143555 552.9621582 C-51.97830933 552.09337036 -51.97830933 552.09337036 -53.515625 551.20703125 C-54.38477539 550.7066333 -55.25392578 550.20623535 -56.14941406 549.69067383 C-57.09010742 549.13275146 -58.03080078 548.5748291 -59 548 C-59.65752292 547.68295526 -60.31504584 547.36591051 -60.9924937 547.03925835 C-63.24215834 545.85716412 -65.10807236 544.70188013 -67 543 C-67.84873283 539.76018536 -68.0913488 537.76616539 -68.02069569 534.5203352 C-68.0338212 533.66433404 -68.0469467 532.80833288 -68.06046996 531.92639229 C-68.09481855 529.04346506 -68.07195543 526.16381188 -68.04951477 523.2808075 C-68.06230751 521.19914609 -68.07857347 519.11750359 -68.09802312 517.03589374 C-68.14124515 511.30454824 -68.13425467 505.57418289 -68.11909258 499.84273446 C-68.11130442 493.66594075 -68.14932987 487.48940583 -68.18132019 481.31271362 C-68.23625678 469.20734134 -68.24708797 457.10239694 -68.24114416 444.99694809 C-68.23656755 435.15966081 -68.24595129 425.32247726 -68.26521873 415.48520851 C-68.26792179 414.07251136 -68.27061822 412.65981419 -68.27330806 411.24711702 C-68.27736841 409.11837527 -68.28142931 406.98963352 -68.28551604 404.86089182 C-68.32312072 385.06471621 -68.34400868 365.26857898 -68.33060932 345.47236919 C-68.33010904 344.72585659 -68.32960875 343.97934399 -68.3290933 343.21020979 C-68.3265097 339.42649015 -68.3237743 335.64277063 -68.32098398 331.85905113 C-68.32043083 331.10757788 -68.31987768 330.35610462 -68.31930776 329.58185945 C-68.31818692 328.06219706 -68.31705774 326.54253467 -68.31592022 325.02287228 C-68.29862351 301.37768793 -68.33742334 277.73317402 -68.42016602 254.08813477 C-68.5130204 227.52900591 -68.56243104 200.97029989 -68.54851311 174.41099864 C-68.54717779 171.57941207 -68.54599575 168.74782547 -68.54491234 165.91623878 C-68.54461683 165.21901968 -68.54432133 164.52180057 -68.54401687 163.80345361 C-68.54045999 153.27443129 -68.57105727 142.74585842 -68.61901283 132.21695518 C-68.67351883 120.24258133 -68.6816217 108.26919433 -68.63162348 96.29470047 C-68.6073677 90.18276768 -68.60417865 84.07272735 -68.65733719 77.96093559 C-68.70544861 72.36692209 -68.69371586 66.77636583 -68.63398387 61.18249378 C-68.6229198 59.15761199 -68.63388361 57.13246717 -68.66891161 55.10785814 C-68.90646014 40.37125408 -68.90646014 40.37125408 -65.74483691 36.43882884 C-62.2398916 33.41266894 -58.26623319 31.75421101 -54 30 C-51.9693845 28.84991753 -49.95216833 27.67542917 -47.95703125 26.46484375 C-45.91004036 25.28699859 -43.86182841 24.11127339 -41.8125 22.9375 C-39.55846669 21.64345047 -37.30456462 20.34917231 -35.05078125 19.0546875 C-34.47824615 18.72616287 -33.90571106 18.39763824 -33.31582642 18.05915833 C-29.06954089 15.62072481 -24.83575861 13.16136922 -20.60546875 10.6953125 C-18.81597434 9.65438915 -17.02624764 8.61386655 -15.23641968 7.57351685 C-13.52291074 6.5758396 -11.81185201 5.57395798 -10.10083008 4.57202148 C-8.55045044 3.67205444 -8.55045044 3.67205444 -6.96875 2.75390625 C-5.59879883 1.95448608 -5.59879883 1.95448608 -4.20117188 1.13891602 C-2 0 -2 0 0 0 Z " fill="#2192F1" transform="translate(67,213)"/>
</svg>
